# xmcd
#
# Track frame offsets:
#	150
#	10683
#	23471
#	36183
#	47527
#	59749
#	70188
#	82296
#	91207
#	100163
#	110498
#	123909
#
# Disc length: 1778 seconds
#
# Revision: 0
# Processed by: cddbd v1.5.2PL0 Copyright (c) Steve Scherf et al.
# Submitted via: audiograbber 1.83.01
#
DISCID=9406f00c
DTITLE=Porter Wagoner and Dolly Parton - Just The Two Of Us
DYEAR=1968
DGENRE=Country
TTITLE0=Closer by the Hour
TTITLE1=I Washed My Face in the Morning Dew
TTITLE2=Jeannie's Afraid of the Dark
TTITLE3=Holding On to  Nothin'
TTITLE4=Slip Away Today
TTITLE5=The Dark End of the Street
TTITLE6=Just the Two of Us
TTITLE7=Afraid to Love Again
TTITLE8=We'll Get Ahead Someday
TTITLE9=Somewhere Between
TTITLE10=The Party
TTITLE11=I Can
EXTD=
EXTT0=
EXTT1=
EXTT2=
EXTT3=
EXTT4=
EXTT5=
EXTT6=
EXTT7=
EXTT8=
EXTT9=
EXTT10=
EXTT11=
PLAYORDER=
